HIERARCHY
ROOT mixamorig:Hips
{
	OFFSET 0.000000 103.991501 0.000000
	CHANNELS 6 Xposition Yposition Zposition Xrotation Yrotation Zrotation
	JOINT mixamorig:Spine
	{
		OFFSET 0.000000 10.181602 0.131500
		CHANNELS 6 Xposition Yposition Zposition Xrotation Yrotation Zrotation
		JOINT mixamorig:Spine1
		{
			OFFSET 0.000000 10.083504 -1.000800
			CHANNELS 6 Xposition Yposition Zposition Xrotation Yrotation Zrotation
			JOINT mixamorig:Spine2
			{
				OFFSET 0.000000 9.100006 -1.373400
				CHANNELS 6 Xposition Yposition Zposition Xrotation Yrotation Zrotation
				JOINT mixamorig:Neck
				{
					OFFSET 0.000000 16.671707 -2.516200
					CHANNELS 6 Xposition Yposition Zposition Xrotation Yrotation Zrotation
					JOINT mixamorig:Head
					{
						OFFSET 0.000000 9.617905 1.685000
						CHANNELS 6 Xposition Yposition Zposition Xrotation Yrotation Zrotation
						JOINT mixamorig:HeadTop_End
						{
							OFFSET 0.000000 17.815201 2.585000
							CHANNELS 6 Xposition Yposition Zposition Xrotation Yrotation Zrotation
							End Site
							{
								OFFSET 0.000000 13.794495 0.000000
							}
						}
						JOINT mixamorig:LeftEye
						{
							OFFSET 3.067600 6.409500 9.283600
							CHANNELS 6 Xposition Yposition Zposition Xrotation Yrotation Zrotation
							End Site
							{
								OFFSET 0.000000 13.794495 0.000000
							}
						}
						JOINT mixamorig:RightEye
						{
							OFFSET -3.067600 6.409500 9.283500
							CHANNELS 6 Xposition Yposition Zposition Xrotation Yrotation Zrotation
							End Site
							{
								OFFSET 0.000000 13.794495 0.000000
							}
						}
					}
				}
				JOINT mixamorig:LeftShoulder
				{
					OFFSET 4.570400 10.945999 -2.628000
					CHANNELS 6 Xposition Yposition Zposition Xrotation Yrotation Zrotation
					JOINT mixamorig:LeftArm
					{
						OFFSET 10.592400 -0.524597 -2.232100
						CHANNELS 6 Xposition Yposition Zposition Xrotation Yrotation Zrotation
						JOINT mixamorig:LeftForeArm
						{
							OFFSET 27.841499 0.000000 0.000000
							CHANNELS 6 Xposition Yposition Zposition Xrotation Yrotation Zrotation
							JOINT mixamorig:LeftHand
							{
								OFFSET 28.328800 0.000000 0.000000
								CHANNELS 6 Xposition Yposition Zposition Xrotation Yrotation Zrotation
								JOINT mixamorig:LeftHandThumb1
								{
									OFFSET 2.466103 -1.576218 2.681689
									CHANNELS 6 Xposition Yposition Zposition Xrotation Yrotation Zrotation
									JOINT mixamorig:LeftHandThumb2
									{
										OFFSET 3.229782 -1.864716 1.864716
										CHANNELS 6 Xposition Yposition Zposition Xrotation Yrotation Zrotation
										JOINT mixamorig:LeftHandThumb3
										{
											OFFSET 2.652611 -1.531494 1.531488
											CHANNELS 6 Xposition Yposition Zposition Xrotation Yrotation Zrotation
											JOINT mixamorig:LeftHandThumb4
											{
												OFFSET 1.954605 -1.128494 1.128493
												CHANNELS 6 Xposition Yposition Zposition Xrotation Yrotation Zrotation
												End Site
												{
													OFFSET -0.000404 2.523392 0.000683
												}
											}
										}
									}
								}
								JOINT mixamorig:LeftHandIndex1
								{
									OFFSET 9.109299 -0.518112 2.259867
									CHANNELS 6 Xposition Yposition Zposition Xrotation Yrotation Zrotation
									JOINT mixamorig:LeftHandIndex2
									{
										OFFSET 3.676399 0.000000 0.000000
										CHANNELS 6 Xposition Yposition Zposition Xrotation Yrotation Zrotation
										JOINT mixamorig:LeftHandIndex3
										{
											OFFSET 2.883102 0.000000 0.000000
											CHANNELS 6 Xposition Yposition Zposition Xrotation Yrotation Zrotation
											JOINT mixamorig:LeftHandIndex4
											{
												OFFSET 2.392700 0.000000 0.000000
												CHANNELS 6 Xposition Yposition Zposition Xrotation Yrotation Zrotation
												End Site
												{
													OFFSET 0.000000 2.392700 0.001080
												}
											}
										}
									}
								}
								JOINT mixamorig:LeftHandMiddle1
								{
									OFFSET 9.533401 0.000000 0.000000
									CHANNELS 6 Xposition Yposition Zposition Xrotation Yrotation Zrotation
									JOINT mixamorig:LeftHandMiddle2
									{
										OFFSET 3.698196 0.000000 0.000000
										CHANNELS 6 Xposition Yposition Zposition Xrotation Yrotation Zrotation
										JOINT mixamorig:LeftHandMiddle3
										{
											OFFSET 2.950897 0.000000 0.000000
											CHANNELS 6 Xposition Yposition Zposition Xrotation Yrotation Zrotation
											JOINT mixamorig:LeftHandMiddle4
											{
												OFFSET 2.833900 0.000000 0.000000
												CHANNELS 6 Xposition Yposition Zposition Xrotation Yrotation Zrotation
												End Site
												{
													OFFSET 0.000000 2.833893 0.001278
												}
											}
										}
									}
								}
								JOINT mixamorig:LeftHandRing1
								{
									OFFSET 9.104500 -0.043060 -1.865119
									CHANNELS 6 Xposition Yposition Zposition Xrotation Yrotation Zrotation
									JOINT mixamorig:LeftHandRing2
									{
										OFFSET 3.153999 0.000000 0.000000
										CHANNELS 6 Xposition Yposition Zposition Xrotation Yrotation Zrotation
										JOINT mixamorig:LeftHandRing3
										{
											OFFSET 2.937698 0.000000 0.000000
											CHANNELS 6 Xposition Yposition Zposition Xrotation Yrotation Zrotation
											JOINT mixamorig:LeftHandRing4
											{
												OFFSET 2.647499 0.000000 0.000000
												CHANNELS 6 Xposition Yposition Zposition Xrotation Yrotation Zrotation
												End Site
												{
													OFFSET 0.000000 2.647507 0.001195
												}
											}
										}
									}
								}
								JOINT mixamorig:LeftHandPinky1
								{
									OFFSET 8.077797 -0.486984 -3.806321
									CHANNELS 6 Xposition Yposition Zposition Xrotation Yrotation Zrotation
									JOINT mixamorig:LeftHandPinky2
									{
										OFFSET 3.599998 0.000000 0.000000
										CHANNELS 6 Xposition Yposition Zposition Xrotation Yrotation Zrotation
										JOINT mixamorig:LeftHandPinky3
										{
											OFFSET 2.114197 0.000000 0.000000
											CHANNELS 6 Xposition Yposition Zposition Xrotation Yrotation Zrotation
											JOINT mixamorig:LeftHandPinky4
											{
												OFFSET 1.975700 0.000000 0.000000
												CHANNELS 6 Xposition Yposition Zposition Xrotation Yrotation Zrotation
												End Site
												{
													OFFSET 0.000000 1.975693 0.000892
												}
											}
										}
									}
								}
							}
						}
					}
				}
				JOINT mixamorig:RightShoulder
				{
					OFFSET -4.570000 10.946198 -2.628000
					CHANNELS 6 Xposition Yposition Zposition Xrotation Yrotation Zrotation
					JOINT mixamorig:RightArm
					{
						OFFSET -10.592800 -0.524796 -2.232100
						CHANNELS 6 Xposition Yposition Zposition Xrotation Yrotation Zrotation
						JOINT mixamorig:RightForeArm
						{
							OFFSET -27.841499 0.000000 0.000000
							CHANNELS 6 Xposition Yposition Zposition Xrotation Yrotation Zrotation
							JOINT mixamorig:RightHand
							{
								OFFSET -28.328800 0.000000 0.000000
								CHANNELS 6 Xposition Yposition Zposition Xrotation Yrotation Zrotation
								JOINT mixamorig:RightHandPinky1
								{
									OFFSET -8.076698 -0.486725 -3.806227
									CHANNELS 6 Xposition Yposition Zposition Xrotation Yrotation Zrotation
									JOINT mixamorig:RightHandPinky2
									{
										OFFSET -3.599998 0.000000 0.000000
										CHANNELS 6 Xposition Yposition Zposition Xrotation Yrotation Zrotation
										JOINT mixamorig:RightHandPinky3
										{
											OFFSET -2.114197 0.000000 0.000000
											CHANNELS 6 Xposition Yposition Zposition Xrotation Yrotation Zrotation
											JOINT mixamorig:RightHandPinky4
											{
												OFFSET -1.975700 0.000000 0.000000
												CHANNELS 6 Xposition Yposition Zposition Xrotation Yrotation Zrotation
												End Site
												{
													OFFSET 0.000000 1.975693 0.000919
												}
											}
										}
									}
								}
								JOINT mixamorig:RightHandRing1
								{
									OFFSET -9.103600 -0.043030 -1.865120
									CHANNELS 6 Xposition Yposition Zposition Xrotation Yrotation Zrotation
									JOINT mixamorig:RightHandRing2
									{
										OFFSET -3.153999 0.000000 0.000000
										CHANNELS 6 Xposition Yposition Zposition Xrotation Yrotation Zrotation
										JOINT mixamorig:RightHandRing3
										{
											OFFSET -2.937698 0.000000 0.000000
											CHANNELS 6 Xposition Yposition Zposition Xrotation Yrotation Zrotation
											JOINT mixamorig:RightHandRing4
											{
												OFFSET -2.647499 0.000000 0.000000
												CHANNELS 6 Xposition Yposition Zposition Xrotation Yrotation Zrotation
												End Site
												{
													OFFSET 0.000000 2.647507 0.001231
												}
											}
										}
									}
								}
								JOINT mixamorig:RightHandMiddle1
								{
									OFFSET -9.532501 0.000000 0.000000
									CHANNELS 6 Xposition Yposition Zposition Xrotation Yrotation Zrotation
									JOINT mixamorig:RightHandMiddle2
									{
										OFFSET -3.698196 0.000000 0.000000
										CHANNELS 6 Xposition Yposition Zposition Xrotation Yrotation Zrotation
										JOINT mixamorig:RightHandMiddle3
										{
											OFFSET -2.950897 0.000000 0.000000
											CHANNELS 6 Xposition Yposition Zposition Xrotation Yrotation Zrotation
											JOINT mixamorig:RightHandMiddle4
											{
												OFFSET -2.833900 0.000000 0.000000
												CHANNELS 6 Xposition Yposition Zposition Xrotation Yrotation Zrotation
												End Site
												{
													OFFSET 0.000000 2.833893 0.001318
												}
											}
										}
									}
								}
								JOINT mixamorig:RightHandIndex1
								{
									OFFSET -9.108299 -0.517853 2.259859
									CHANNELS 6 Xposition Yposition Zposition Xrotation Yrotation Zrotation
									JOINT mixamorig:RightHandIndex2
									{
										OFFSET -3.676399 0.000000 0.000000
										CHANNELS 6 Xposition Yposition Zposition Xrotation Yrotation Zrotation
										JOINT mixamorig:RightHandIndex3
										{
											OFFSET -2.883102 0.000000 0.000000
											CHANNELS 6 Xposition Yposition Zposition Xrotation Yrotation Zrotation
											JOINT mixamorig:RightHandIndex4
											{
												OFFSET -2.392700 0.000000 0.000000
												CHANNELS 6 Xposition Yposition Zposition Xrotation Yrotation Zrotation
												End Site
												{
													OFFSET 0.000000 2.392700 0.001113
												}
											}
										}
									}
								}
								JOINT mixamorig:RightHandThumb1
								{
									OFFSET -2.464798 -1.573944 2.681868
									CHANNELS 6 Xposition Yposition Zposition Xrotation Yrotation Zrotation
									JOINT mixamorig:RightHandThumb2
									{
										OFFSET -3.229782 -1.864716 1.864716
										CHANNELS 6 Xposition Yposition Zposition Xrotation Yrotation Zrotation
										JOINT mixamorig:RightHandThumb3
										{
											OFFSET -2.652542 -1.531448 1.531448
											CHANNELS 6 Xposition Yposition Zposition Xrotation Yrotation Zrotation
											JOINT mixamorig:RightHandThumb4
											{
												OFFSET -1.954605 -1.128494 1.128493
												CHANNELS 6 Xposition Yposition Zposition Xrotation Yrotation Zrotation
												End Site
												{
													OFFSET 0.000412 2.523392 0.000704
												}
											}
										}
									}
								}
							}
						}
					}
				}
			}
		}
	}
	JOINT mixamorig:LeftUpLeg
	{
		OFFSET 8.207800 -6.751701 -1.599600
		CHANNELS 6 Xposition Yposition Zposition Xrotation Yrotation Zrotation
		JOINT mixamorig:LeftLeg
		{
			OFFSET 0.000000 -44.370499 0.284600
			CHANNELS 6 Xposition Yposition Zposition Xrotation Yrotation Zrotation
			JOINT mixamorig:LeftFoot
			{
				OFFSET 0.000000 -44.427898 -2.982200
				CHANNELS 6 Xposition Yposition Zposition Xrotation Yrotation Zrotation
				JOINT mixamorig:LeftToeBase
				{
					OFFSET 0.000000 -8.728700 10.710600
					CHANNELS 6 Xposition Yposition Zposition Xrotation Yrotation Zrotation
					JOINT mixamorig:LeftToe_End
					{
						OFFSET 0.000000 -0.000700 9.278099
						CHANNELS 6 Xposition Yposition Zposition Xrotation Yrotation Zrotation
						End Site
						{
							OFFSET 0.000000 9.278100 0.000000
						}
					}
				}
			}
		}
	}
	JOINT mixamorig:RightUpLeg
	{
		OFFSET -8.207800 -6.751701 -1.599600
		CHANNELS 6 Xposition Yposition Zposition Xrotation Yrotation Zrotation
		JOINT mixamorig:RightLeg
		{
			OFFSET 0.000000 -44.370499 0.286200
			CHANNELS 6 Xposition Yposition Zposition Xrotation Yrotation Zrotation
			JOINT mixamorig:RightFoot
			{
				OFFSET 0.000000 -44.427700 -2.983800
				CHANNELS 6 Xposition Yposition Zposition Xrotation Yrotation Zrotation
				JOINT mixamorig:RightToeBase
				{
					OFFSET 0.000000 -8.728700 10.710600
					CHANNELS 6 Xposition Yposition Zposition Xrotation Yrotation Zrotation
					JOINT mixamorig:RightToe_End
					{
						OFFSET 0.000000 -0.000700 9.278100
						CHANNELS 6 Xposition Yposition Zposition Xrotation Yrotation Zrotation
						End Site
						{
							OFFSET 0.000000 9.278100 0.000000
						}
					}
				}
			}
		}
	}
}
MOTION
Frames: 3
Frame Time: 0.016667
0.018077 102.764885 1.443618 -2.356880 1.984926 0.983171 -0.000000 10.181601 0.131500 3.333652 0.598544 0.478450 -0.000000 10.083506 -1.000800 0.930471 0.154294 0.357193 0.000000 9.100014 -1.373401 0.929584 0.162849 0.356817 -0.000000 16.671715 -2.516200 -0.320321 -0.595508 -0.636659 0.000000 9.617912 1.685000 -4.959198 -3.942019 -5.084456 0.000001 17.815216 2.585001 0.000000 0.000000 0.000000 3.067601 6.409485 9.283599 0.000000 0.000000 0.000000 -3.067600 6.409500 9.283500 0.000000 0.000000 0.000000 4.570399 10.946020 -2.628000 1.810177 -2.691128 -3.352124 10.592415 -0.524580 -2.232101 4.993671 -1.582081 -76.558839 27.841482 -0.000000 -0.000001 -0.000000 -18.399061 0.000021 28.328802 -0.000006 -0.000003 -16.957995 -2.333067 -9.124948 2.466102 -1.576220 2.681685 15.696169 7.659616 11.558577 3.229795 -1.864710 1.864717 10.848861 14.177318 3.482167 2.652611 -1.531475 1.531484 8.828599 17.341027 6.205620 1.954607 -1.128479 1.128488 -0.000000 -0.000002 -0.000001 9.109282 -0.518106 2.259864 0.242543 2.812741 -7.580349 3.676387 0.000004 -0.000002 0.578543 3.274234 -25.422683 2.883089 -0.000002 -0.000000 0.093034 1.155813 -13.561700 2.392692 -0.000002 0.000001 -0.000001 -0.000000 0.000000 9.533391 -0.000003 -0.000001 0.822776 8.680347 -13.852647 3.698189 0.000010 0.000001 0.589454 3.394759 -26.565915 2.950892 0.000005 0.000001 0.229883 1.709053 -14.547087 2.833901 -0.000011 -0.000001 -0.000000 -0.000000 -0.000003 9.104504 -0.043069 -1.865126 2.117938 12.069384 -20.172154 3.153981 0.000009 -0.000000 0.666677 2.510525 -22.835278 2.937706 -0.000009 -0.000001 0.553415 1.853398 -19.548036 2.647499 -0.000012 -0.000001 0.000000 -0.000000 0.000000 8.077785 -0.486978 -3.806318 0.382147 14.513068 -19.135933 3.599988 0.000001 0.000000 0.258971 2.088904 -22.795758 2.114195 0.000019 -0.000000 0.334671 2.481136 -16.527325 1.975694 0.000010 0.000000 0.000000 0.000001 -0.000001 -4.569999 10.946200 -2.628000 1.738913 6.459338 4.766164 -10.592794 -0.524794 -2.232101 9.623831 14.510257 71.804973 -27.841507 0.000004 0.000000 -0.000003 18.085998 0.000014 -28.328829 -0.000010 -0.000004 -22.321287 -0.193969 7.968662 -8.076721 -0.486722 -3.806230 0.615739 -9.595235 19.672854 -3.599969 -0.000006 0.000002 0.265519 -2.109007 23.005810 -2.114196 -0.000027 0.000000 -0.708288 0.066956 19.342310 -1.975699 0.000011 -0.000000 0.000000 -0.000000 0.000002 -9.103604 -0.043047 -1.865124 0.485131 -6.894909 15.016714 -3.153991 -0.000020 0.000000 0.705788 -2.581430 23.646152 -2.937679 -0.000004 0.000001 -0.179613 0.709361 11.249239 -2.647485 0.000008 -0.000000 0.000000 0.000000 0.000001 -9.532513 0.000010 -0.000002 -0.265168 -3.235809 10.867791 -3.698205 0.000007 0.000000 0.450500 -3.079244 23.111564 -2.950885 -0.000019 0.000000 0.172941 -1.528104 14.233236 -2.833892 -0.000017 -0.000002 -0.000000 0.000000 0.000003 -9.108310 -0.517855 2.259859 0.364615 3.525379 4.385924 -3.676390 0.000010 -0.000000 0.267449 -2.471108 16.876993 -2.883101 -0.000012 0.000002 -0.171967 0.547365 6.529319 -2.392699 0.000011 0.000003 -0.000001 -0.000000 -0.000000 -2.464790 -1.573936 2.681868 8.354544 -6.024051 -12.320072 -3.229772 -1.864692 1.864721 6.910979 -10.783917 -6.236081 -2.652546 -1.531451 1.531448 11.871630 -20.189114 8.097619 -1.954608 -1.128510 1.128493 0.000001 -0.000001 0.000001 8.207800 -6.751699 -1.599600 -5.452188 9.933332 7.255193 -0.000004 -44.370499 0.284600 13.248857 -4.764492 -0.234010 -0.000000 -44.427898 -2.982199 -5.750936 0.517962 -5.661628 0.000002 -8.728700 10.710600 0.177641 0.000005 -0.000000 0.000000 -0.000700 9.278100 -0.000000 0.000001 -0.000000 -8.207801 -6.751710 -1.599600 -7.052109 -11.916573 -2.034159 -0.000000 -44.370499 0.286199 18.510021 1.860023 0.118123 0.000000 -44.427704 -2.983802 -9.465858 -0.043380 -1.229943 0.000000 -8.728700 10.710600 -1.542568 0.000001 0.000000 -0.000001 -0.000700 9.278102 -0.000000 -0.000001 -0.000000 
0.023772 102.580612 1.017520 -1.675600 1.829527 0.989163 -0.000000 10.181602 0.131500 3.573182 0.585638 0.490538 0.000000 10.083498 -1.000800 1.079820 0.139129 0.349481 -0.000000 9.099984 -1.373400 1.078556 0.148618 0.349319 -0.000000 16.671726 -2.516199 -0.352874 -0.577001 -0.681682 -0.000001 9.617875 1.685001 -4.926932 -3.836324 -5.153832 -0.000000 17.815201 2.585000 -0.000000 0.000000 0.000000 3.067600 6.409515 9.283600 -0.000000 0.000000 0.000000 -3.067600 6.409485 9.283501 -0.000000 0.000000 0.000000 4.570399 10.946022 -2.627999 1.762740 -2.736263 -3.486257 10.592407 -0.524583 -2.232099 5.649139 -3.069010 -75.282154 27.841490 0.000001 0.000003 0.000003 -20.448441 0.000023 28.328794 0.000007 -0.000006 -18.146674 -3.212034 -7.877944 2.466093 -1.576204 2.681689 15.675853 7.542504 11.525293 3.229787 -1.864714 1.864717 10.786630 13.984791 3.359768 2.652603 -1.531482 1.531487 8.843401 17.074073 6.119712 1.954609 -1.128479 1.128491 0.000001 0.000001 -0.000002 9.109291 -0.518108 2.259865 0.218243 2.630551 -7.597832 3.676394 -0.000011 0.000000 0.578546 3.274241 -25.422726 2.883093 0.000002 -0.000002 0.093036 1.155809 -13.561673 2.392694 0.000000 -0.000000 0.000001 0.000000 -0.000001 9.533383 0.000003 0.000001 0.822777 8.680347 -13.852650 3.698182 0.000010 0.000002 0.589454 3.394757 -26.565911 2.950893 0.000010 -0.000001 0.229882 1.709048 -14.547080 2.833906 -0.000005 0.000001 -0.000000 0.000000 -0.000002 9.104487 -0.043070 -1.865120 2.134353 12.121082 -20.170648 3.153996 -0.000005 0.000000 0.666660 2.510485 -22.834842 2.937680 0.000001 0.000000 0.553415 1.853397 -19.548049 2.647485 -0.000002 -0.000000 0.000000 0.000000 -0.000000 8.077772 -0.486983 -3.806321 0.439281 14.672419 -19.133378 3.600007 0.000000 0.000000 0.258969 2.088903 -22.795770 2.114180 0.000001 -0.000001 0.334675 2.481135 -16.527320 1.975700 0.000001 0.000001 0.000001 0.000001 -0.000003 -4.569999 10.946221 -2.627999 1.688011 6.659493 4.870657 -10.592801 -0.524797 -2.232101 10.194591 15.128393 70.756908 -27.841503 -0.000005 0.000001 -0.000001 19.068100 -0.000012 -28.328802 0.000005 0.000002 -22.564971 0.799428 7.304166 -8.076700 -0.486735 -3.806229 0.669986 -9.745094 19.688741 -3.599992 -0.000021 0.000002 0.265517 -2.109009 23.005792 -2.114204 0.000021 -0.000001 -0.708287 0.066955 19.342303 -1.975707 -0.000015 -0.000001 0.000000 0.000000 0.000003 -9.103596 -0.043048 -1.865121 0.501366 -6.969967 15.028472 -3.153989 -0.000019 0.000001 0.705744 -2.581346 23.645201 -2.937685 -0.000002 -0.000001 -0.179614 0.709363 11.249248 -2.647485 0.000001 0.000001 -0.000000 0.000000 -0.000003 -9.532499 0.000007 -0.000001 -0.265172 -3.235807 10.867780 -3.698209 0.000007 -0.000001 0.450502 -3.079243 23.111596 -2.950892 -0.000013 -0.000000 0.172939 -1.528104 14.233239 -2.833892 -0.000015 -0.000000 -0.000000 -0.000000 -0.000000 -9.108291 -0.517858 2.259859 0.350643 3.621323 4.373072 -3.676401 -0.000023 0.000002 0.267287 -2.470577 16.871426 -2.883103 0.000008 0.000001 -0.171966 0.547366 6.529386 -2.392677 -0.000012 0.000001 -0.000001 0.000000 -0.000000 -2.464795 -1.573961 2.681868 8.410206 -5.947134 -12.276927 -3.229796 -1.864697 1.864719 6.884522 -10.634019 -6.115324 -2.652545 -1.531457 1.531448 11.720817 -19.811368 8.127532 -1.954596 -1.128510 1.128501 0.000001 -0.000002 -0.000001 8.207800 -6.751698 -1.599601 -7.385836 9.472843 7.345951 -0.000001 -44.370499 0.284600 15.223030 -4.279321 -0.172187 -0.000000 -44.427902 -2.982200 -6.318373 0.601683 -6.074739 -0.000001 -8.728701 10.710600 0.062638 -0.000000 -0.000002 0.000000 -0.000700 9.278100 0.000000 0.000001 0.000000 -8.207801 -6.751701 -1.599600 -8.679377 -11.256890 -2.053745 0.000001 -44.370499 0.286200 19.713316 1.303048 0.031610 -0.000001 -44.427696 -2.983801 -9.723186 -0.001862 -1.157269 -0.000001 -8.728700 10.710599 -1.535516 -0.000003 -0.000000 -0.000000 -0.000700 9.278099 0.000000 -0.000000 0.000000 
0.047931 102.359756 0.518729 -0.800742 1.705790 0.988144 0.000000 10.181613 0.131500 3.837785 0.543407 0.489121 0.000000 10.083508 -1.000801 1.238964 0.106037 0.345167 -0.000000 9.099985 -1.373400 1.237273 0.116483 0.344929 -0.000000 16.671713 -2.516199 -0.412938 -0.557956 -0.716268 -0.000000 9.617888 1.685002 -5.245346 -3.717546 -5.214795 -0.000001 17.815201 2.585000 0.000000 0.000000 0.000000 3.067600 6.409485 9.283599 0.000000 0.000000 0.000000 -3.067601 6.409485 9.283499 0.000000 0.000000 0.000000 4.570402 10.946020 -2.628001 1.712090 -2.798208 -3.616342 10.592409 -0.524598 -2.232104 6.466544 -4.636034 -73.904600 27.841513 0.000000 0.000001 -0.000002 -22.627225 -0.000001 28.328798 0.000008 0.000004 -19.631536 -4.297743 -6.513541 2.466091 -1.576222 2.681687 15.618334 7.213029 11.431521 3.229786 -1.864717 1.864715 10.611576 13.443537 3.013945 2.652610 -1.531496 1.531484 8.883452 16.322347 5.879865 1.954603 -1.128477 1.128495 0.000000 -0.000002 -0.000002 9.109282 -0.518106 2.259866 0.149581 2.117910 -7.647428 3.676394 -0.000011 -0.000002 0.578540 3.274238 -25.422719 2.883086 -0.000002 -0.000001 0.093032 1.155806 -13.561696 2.392678 0.000002 -0.000002 0.000000 0.000001 -0.000000 9.533387 -0.000000 -0.000003 0.822778 8.680349 -13.852636 3.698197 -0.000013 -0.000001 0.589452 3.394757 -26.565929 2.950900 0.000011 0.000002 0.229884 1.709049 -14.547082 2.833907 0.000006 0.000001 0.000001 -0.000000 0.000001 9.104496 -0.043061 -1.865122 2.180560 12.266541 -20.166482 3.153989 0.000009 -0.000000 0.666602 2.510381 -22.833643 2.937691 -0.000012 -0.000001 0.553414 1.853398 -19.548042 2.647503 0.000006 0.000000 0.000000 -0.000000 0.000004 8.077779 -0.486993 -3.806324 0.600236 15.120842 -19.127117 3.599988 -0.000000 0.000000 0.258967 2.088905 -22.795780 2.114188 0.000013 0.000001 0.334672 2.481134 -16.527325 1.975695 0.000002 0.000001 -0.000000 -0.000000 0.000002 -4.570000 10.946200 -2.628000 1.636829 6.857128 4.939563 -10.592794 -0.524795 -2.232100 11.055522 15.933590 69.525220 -27.841488 -0.000005 0.000004 0.000000 20.669604 -0.000013 -28.328800 0.000010 -0.000001 -22.942660 1.704491 6.236838 -8.076700 -0.486714 -3.806230 0.823311 -10.166594 19.734203 -3.599996 -0.000002 0.000000 0.265520 -2.109008 23.005815 -2.114186 -0.000002 -0.000001 -0.708289 0.066959 19.342312 -1.975697 0.000017 -0.000003 -0.000000 0.000000 0.000002 -9.103597 -0.043038 -1.865123 0.547266 -7.181122 15.061720 -3.153984 -0.000020 -0.000001 0.705612 -2.581109 23.642543 -2.937689 -0.000019 0.000001 -0.179613 0.709356 11.249269 -2.647490 -0.000000 -0.000000 -0.000001 -0.000000 0.000003 -9.532503 0.000008 -0.000001 -0.265172 -3.235809 10.867777 -3.698190 0.000011 -0.000000 0.450503 -3.079239 23.111569 -2.950892 -0.000012 0.000000 0.172937 -1.528103 14.233259 -2.833890 -0.000042 -0.000000 -0.000001 -0.000000 -0.000001 -9.108298 -0.517857 2.259857 0.311633 3.891332 4.337100 -3.676391 -0.000010 0.000001 0.266828 -2.469062 16.855876 -2.883106 0.000007 0.000001 -0.171970 0.547350 6.529502 -2.392684 -0.000013 -0.000001 0.000000 -0.000000 -0.000000 -2.464792 -1.573949 2.681865 8.566555 -5.730097 -12.156291 -3.229782 -1.864689 1.864719 6.809936 -10.212282 -5.775134 -2.652545 -1.531463 1.531451 11.297148 -18.748808 8.216980 -1.954607 -1.128507 1.128491 0.000003 0.000001 0.000001 8.207800 -6.751702 -1.599600 -9.682440 8.926473 7.448433 -0.000002 -44.370506 0.284598 17.414126 -3.884580 -0.129144 -0.000001 -44.427898 -2.982199 -6.886077 0.705688 -6.621401 -0.000000 -8.728700 10.710601 -0.074878 -0.000002 0.000001 -0.000001 -0.000700 9.278100 -0.000000 0.000001 -0.000000 -8.207800 -6.751695 -1.599600 -10.614746 -10.501244 -2.046717 -0.000000 -44.370502 0.286202 21.028337 0.620147 -0.076139 0.000001 -44.427704 -2.983802 -9.973543 0.036701 -1.039595 0.000000 -8.728700 10.710600 -1.522182 0.000003 0.000000 0.000000 -0.000700 9.278101 -0.000000 0.000001 0.000000 
